<svg xmlns="http://www.w3.org/2000/svg" width="512" height="512" viewBox="0 0 60 60"><path fill="#2a2a49" d="M56 9v39a5 5 0 0 1-5 5H9a5 5 0 0 1-5-5V9l1-1h50z"/><path fill="#447" d="M56 6v3H4V6a5 5 0 0 1 5-5h42a5 5 0 0 1 5 5z"/><path fill="#daeeef" d="m34.479 44.069 3.17-3.361a7.968 7.968 0 0 0 8.7-1.74 9.3 9.3 0 0 0 2.64-6.86 1.223 1.223 0 0 0-2.1-.751l-3.37 3.371a1.371 1.371 0 0 1-.96.4h-2.32a1.361 1.361 0 0 1-1.36-1.36v-2.321a1.33 1.33 0 0 1 .4-.96l3.37-3.38a1.232 1.232 0 0 0-.85-2.1 9.294 9.294 0 0 0-6.76 2.65 7.967 7.967 0 0 0-1.74 8.7l-4.09 3.86-2.92 2.741-10.03 9.45a3.775 3.775 0 1 0 5.33 5.331l8.77-9.3z"/><path fill="#a2c6cc" d="M24.181 35.177 33.979 45 31 47.67l-9.5-9.513z"/><path fill="#c4e1e8" d="M28.588 27.207A40.56 40.56 0 0 0 25.137 30a1.781 1.781 0 0 0-.088 2.575l.6.6a1.783 1.783 0 0 1 0 2.506l-3.754 3.765a1.772 1.772 0 0 1-2.5 0L18.138 40.7l.451 1.356a.873.873 0 0 1-.206.9l-1.489 1.494a.874.874 0 0 1-1.255 0l-4.382-4.383a.9.9 0 0 1 0-1.258l1.49-1.494a.891.891 0 0 1 .912-.217l1.353.453 1.254-1.249a1.765 1.765 0 0 1 0-2.506l5-5.023A9.56 9.56 0 0 1 28.225 26a.662.662 0 0 1 .363 1.207z"/><path fill="#b25936" d="M44.413 57 43 58.414a2 2 0 0 1-2.829 0l-10.01-10.171a1 1 0 0 1 0-1.414L32.99 44a1 1 0 0 1 1.41 0l10.013 10.171a2 2 0 0 1 0 2.829z"/><path fill="#ff4d4d" d="M10 6H9a1 1 0 0 1 0-2h1a1 1 0 0 1 0 2z"/><path fill="#f7bb26" d="M15 6h-1a1 1 0 0 1 0-2h1a1 1 0 0 1 0 2z"/><path fill="#25e572" d="M20 6h-1a1 1 0 0 1 0-2h1a1 1 0 0 1 0 2z"/><path fill="#2a2a49" d="M46 6H30a1 1 0 0 1 0-2h16a1 1 0 0 1 0 2z"/><g fill="#25e572"><path d="M24 22a.994.994 0 0 1-.6-.2l-4-3a1 1 0 0 1 0-1.6l4-3a1 1 0 1 1 1.2 1.6L21.667 18l2.933 2.2A1 1 0 0 1 24 22zM36 22a1 1 0 0 1-.6-1.8l2.933-2.2-2.933-2.2a1 1 0 0 1 1.2-1.6l4 3a1 1 0 0 1 0 1.6l-4 3a.994.994 0 0 1-.6.2zM29 23a1.017 1.017 0 0 1-.243-.03 1 1 0 0 1-.728-1.212l2-8a1 1 0 0 1 1.94.484l-2 8A1 1 0 0 1 29 23z"/></g></svg>