<svg xmlns="http://www.w3.org/2000/svg" width="512pt" height="512pt" viewBox="0 -35 512 512"><path fill="#636c77" d="m485.516 397.242-27.364 34.195a26.48 26.48 0 0 1-20.675 9.942H74.523a26.48 26.48 0 0 1-20.675-9.941l-27.364-34.196v-17.656h459.032zM476.691 370.758V17.656C476.661 7.918 468.773.027 459.035 0H52.965C43.227.027 35.34 7.918 35.309 17.656v353.102zm0 0"/><path fill="#4fc0e8" d="M389.563 35.309h42.988a8.829 8.829 0 0 1 8.828 8.828v238.347c0 4.875-3.953 8.825-8.828 8.825H79.449c-4.875 0-8.828-3.95-8.828-8.825V44.137a8.829 8.829 0 0 1 8.828-8.828zm0 0"/><path fill="#a9b0bb" d="M512 344.277v35.309c-.027 9.738-7.918 17.625-17.656 17.656H17.656C7.918 397.211.027 389.324 0 379.586v-35.309c.027-9.738 7.918-17.629 17.656-17.656h158.895a8.829 8.829 0 0 1 8.828 8.828v8.828c0 4.875 3.953 8.825 8.828 8.825h123.586c4.875 0 8.828-3.95 8.828-8.825v-8.828a8.829 8.829 0 0 1 8.828-8.828h158.895c9.738.027 17.629 7.918 17.656 17.656zm0 0"/><path fill="#f4f6f8" d="M388.414 220.691v26.48a8.829 8.829 0 0 1-8.828 8.829H256v-44.137h123.586a8.826 8.826 0 0 1 8.828 8.828zm0 0"/><path fill="#e4e8eb" d="M308.965 123.586c0 29.254-23.711 52.965-52.965 52.965s-52.965-23.711-52.965-52.965c0-29.25 23.711-52.965 52.965-52.965s52.965 23.715 52.965 52.965zm0 0"/><path fill="#a9b0bb" d="M273.656 123.586c0 9.75-7.906 17.656-17.656 17.656s-17.656-7.906-17.656-17.656S246.25 105.93 256 105.93s17.656 7.906 17.656 17.656zm0 0"/><path fill="#b4df80" d="M264.828 211.863V256H132.414a8.829 8.829 0 0 1-8.828-8.828v-26.48a8.826 8.826 0 0 1 8.828-8.829zm0 0"/><path fill="#545d66" d="m485.516 397.242-27.364 34.16a26.262 26.262 0 0 1-20.656 9.977H419.84a26.262 26.262 0 0 0 20.656-9.977l27.367-34.16zM476.691 17.656v308.965h-17.656V17.656C459.004 7.918 451.117.027 441.38 0h17.656c9.738.027 17.625 7.918 17.656 17.656zm0 0"/><path fill="#939aa5" d="M512 344.277v35.309c-.027 9.738-7.918 17.625-17.656 17.656H476.69c9.75 0 17.653-7.906 17.653-17.656v-35.309c-.028-9.738-7.914-17.629-17.653-17.656h17.653c9.738.027 17.629 7.918 17.656 17.656zM194.207 353.102h-17.656c-4.875 0-8.828-3.95-8.828-8.825v-8.828c0-4.875-3.95-8.828-8.825-8.828h17.653a8.829 8.829 0 0 1 8.828 8.828v8.828c0 4.875 3.953 8.825 8.828 8.825zm0 0"/><path fill="#4fc0e8" d="M264.828 123.586a8.829 8.829 0 1 1-17.658-.002 8.829 8.829 0 0 1 17.658.002zm0 0"/><path fill="#ffd67b" d="M44.137 370.758h-8.828c-4.875 0-8.825-3.953-8.825-8.828s3.95-8.828 8.825-8.828h8.828a8.829 8.829 0 0 1 0 17.656zM88.277 370.758H79.45a8.829 8.829 0 0 1 0-17.656h8.828c4.875 0 8.825 3.953 8.825 8.828s-3.95 8.828-8.825 8.828zm0 0"/><path fill="#f4f6f8" d="m161.484 152.656-2.586 2.586v-40.484a8.829 8.829 0 0 0-17.656 0v40.484l-2.586-2.586a8.828 8.828 0 0 0-12.484 12.48l17.656 17.657c.82.824 1.8 1.477 2.879 1.914a8.7 8.7 0 0 0 6.742 0 8.698 8.698 0 0 0 2.88-1.914l17.655-17.656a8.828 8.828 0 0 0-12.484-12.48zM385.828 152.656a8.832 8.832 0 0 0-12.484 0l-2.586 2.586v-40.484a8.829 8.829 0 0 0-17.656 0v40.484l-2.586-2.586c-3.461-3.347-8.97-3.297-12.375.106-3.403 3.406-3.454 8.914-.106 12.375l17.656 17.656c.82.824 1.801 1.477 2.875 1.914a8.71 8.71 0 0 0 6.746 0 8.698 8.698 0 0 0 2.88-1.914l17.652-17.656c3.441-3.45 3.433-9.04-.016-12.48zm0 0"/><g fill="#89c053"><path d="M196.68 211.863 161.367 256H138.77l35.308-44.137zM249.645 211.863 214.332 256h-22.598l35.313-44.137zm0 0"/></g></svg>