<svg xmlns="http://www.w3.org/2000/svg" width="512" height="512" viewBox="0 0 497 497"><path fill="#efedff" d="M221.221 427h-130c-33.138 0-60.001-26.863-60.001-60.001s26.863-60.001 60.001-60.001H467V427z"/><path fill="#d4d4ff" d="M244.999 366.999C244.999 383.568 258.431 397 275 397L91.221 427 31.22 366.999l58.537-60.001 185.243 30c-16.569 0-30.001 13.432-30.001 30.001z"/><path fill="#8288cb" d="M467 336.998H262.56c-64.735 0-123.091-39.008-147.843-98.824L95.61 161.998l21.322-57.569C140.179 41.663 200.039 0 266.972 0H467c16.569 0 30 13.431 30 30v276.998c0 16.569-13.431 30-30 30z"/><path fill="#676fb2" d="M467 397H90c-16.543 0-30-13.459-30-29.998 0-16.543 13.457-30.004 30-30.004h185c-49.625 0-90-40.375-90-90V90c0-49.625 40.375-90 90-90H90C40.375 0 0 40.375 0 90v276.998C0 416.625 40.375 457 90 457h377c16.57 0 30-13.432 30-30s-13.43-30-30-30z"/><path fill="#ff8e9e" d="M100 367.002V477c0 11.046 8.954 20 20 20a20 20 0 0 0 16-8l24-32 24 32a20 20 0 0 0 16 8c11.046 0 20-8.954 20-20V367.002z"/><g fill="#efedff"><path d="M471.092 144.796a7.503 7.503 0 0 0-10.377 2.193l-12.732 19.559-12.875-19.72a7.502 7.502 0 0 0-12.561 8.201l17.94 27.475-.07 28.406a7.5 7.5 0 0 0 7.481 7.519h.019a7.5 7.5 0 0 0 7.5-7.481l.07-28.433 17.798-27.341a7.5 7.5 0 0 0-2.193-10.378zM256.765 143.429H223.63c-4.143 0-7.5 3.357-7.5 7.5s3.357 7.5 7.5 7.5h9.001v52.5c0 4.143 3.357 7.5 7.5 7.5s7.5-3.357 7.5-7.5v-52.5h9.134c4.143 0 7.5-3.357 7.5-7.5s-3.358-7.5-7.5-7.5zM188.751 174.365c-7.371-2.718-14.231-5.679-16.337-6.601-1.634-1.312-1.579-3.142-1.469-3.904.151-1.059.921-3.646 4.772-4.807 8.441-2.551 16.276 3.628 16.511 3.816a7.5 7.5 0 0 0 9.614-11.514c-.566-.476-14.068-11.6-30.452-6.665-8.283 2.495-14.144 9.024-15.294 17.038-1.079 7.52 2.181 14.754 8.508 18.878.331.217.679.406 1.04.567.347.154 8.609 3.833 17.915 7.265 2.631.971 8.663 3.709 7.866 8.169-.599 3.353-4.683 6.821-10.48 6.821-5.964 0-11.703-2.403-15.352-6.43a7.5 7.5 0 0 0-11.115 10.073c6.445 7.112 16.34 11.357 26.467 11.357 12.645 0 23.263-8.068 25.247-19.186 1.495-8.364-2.303-19.293-17.441-24.877zM408.837 166.522c0-12.734-10.756-23.094-23.976-23.094h-15.963a7.499 7.499 0 0 0-7.5 7.5v60c0 4.143 3.357 7.5 7.5 7.5s7.5-3.357 7.5-7.5v-16.984l19.309 21.939a7.48 7.48 0 0 0 5.633 2.545 7.5 7.5 0 0 0 5.627-12.455l-15.248-17.325c9.888-2.848 17.118-11.687 17.118-22.126zm-23.976 8.094c-1.957 0-5.276.014-8.376.028-.015-3.021-.028-6.234-.028-8.122 0-1.605-.008-4.926-.017-8.094h8.421c4.865 0 8.976 3.706 8.976 8.094s-4.11 8.094-8.976 8.094zM308.651 143.429c-20.678 0-37.5 16.822-37.5 37.5s16.822 37.5 37.5 37.5 37.5-16.822 37.5-37.5-16.822-37.5-37.5-37.5zm0 60c-12.406 0-22.5-10.094-22.5-22.5s10.094-22.5 22.5-22.5 22.5 10.094 22.5 22.5-10.093 22.5-22.5 22.5zM131.004 143.429a7.499 7.499 0 0 0-7.5 7.5v60c0 4.143 3.357 7.5 7.5 7.5s7.5-3.357 7.5-7.5v-60a7.5 7.5 0 0 0-7.5-7.5zM101.127 143.429a7.499 7.499 0 0 0-7.5 7.5V172.4H67.105v-21.472c0-4.143-3.357-7.5-7.5-7.5s-7.5 3.357-7.5 7.5v60c0 4.143 3.357 7.5 7.5 7.5s7.5-3.357 7.5-7.5V187.4h26.521v23.528c0 4.143 3.357 7.5 7.5 7.5s7.5-3.357 7.5-7.5v-60a7.497 7.497 0 0 0-7.499-7.499z"/></g><g fill="#ffdbe0"><ellipse cx="165" cy="103.481" rx="30" ry="25"/><ellipse cx="332" cy="103.481" rx="30" ry="25"/></g><g fill="#313d40"><path d="M182.812 71.281a7.499 7.499 0 0 0-7.5 7.5v12c0 4.143 3.357 7.5 7.5 7.5s7.5-3.357 7.5-7.5v-12a7.5 7.5 0 0 0-7.5-7.5zM270.222 85.054a7.5 7.5 0 0 0-10.582.727c-2.938 3.372-7.182 5.307-11.64 5.307s-8.701-1.935-11.64-5.307a7.501 7.501 0 0 0-11.309 9.855c5.788 6.642 14.152 10.451 22.948 10.451s17.16-3.81 22.948-10.451a7.5 7.5 0 0 0-.725-10.582zM316.318 69.041c-11.803 0-21.405 9.603-21.405 21.406 0 4.143 3.357 7.5 7.5 7.5s7.5-3.357 7.5-7.5c0-3.532 2.873-6.406 6.405-6.406s6.406 2.874 6.406 6.406c0 4.143 3.357 7.5 7.5 7.5s7.5-3.357 7.5-7.5c.001-11.803-9.602-21.406-21.406-21.406z"/></g></svg>