<svg xmlns="http://www.w3.org/2000/svg" width="512" height="512" viewBox="0 0 512 512"><path fill="#365e7d" d="M361.106 470.374H205.008l20.813-72.846h114.472z"/><path fill="#4a80aa" d="M491.187 397.528H74.927c-11.495 0-20.813-9.318-20.813-20.813V64.52c0-11.495 9.318-20.813 20.813-20.813h416.26c11.495 0 20.813 9.318 20.813 20.813v312.195c0 11.495-9.318 20.813-20.813 20.813z"/><path fill="#407093" d="M74.927 43.707c-11.495 0-20.813 9.318-20.813 20.813v253.919h299.707c25.248 0 45.789-20.541 45.789-45.789V43.707zM491.187 43.707h-33.301c11.495 0 20.813 9.318 20.813 20.813v312.195c0 11.495-9.318 20.813-20.813 20.813h33.301c11.495 0 20.813-9.318 20.813-20.813V64.52c0-11.494-9.318-20.813-20.813-20.813z"/><path fill="#80b4fb" d="M87.415 322.706V87.31c0-5.69 4.612-10.302 10.302-10.302h370.681c5.69 0 10.302 4.612 10.302 10.302v235.396c0 5.69-4.612 10.302-10.302 10.302H97.716c-5.689 0-10.301-4.612-10.301-10.302z"/><path fill="#61a2f9" d="M87.415 77.008v241.431h266.406c25.248 0 45.789-20.541 45.789-45.789V77.008z"/><path fill="#4a80aa" d="M391.347 512H174.766a6.18 6.18 0 0 1-6.181-6.181v-14.632c0-11.495 9.318-20.813 20.813-20.813h187.317c11.495 0 20.813 9.318 20.813 20.813v14.632a6.18 6.18 0 0 1-6.181 6.181z"/><path fill="#407093" d="M376.715 470.374h-28.098c11.495 0 20.813 9.318 20.813 20.813V512h21.916a6.18 6.18 0 0 0 6.181-6.181v-14.632c.001-11.495-9.317-20.813-20.812-20.813z"/><path fill="#e4f6ff" d="M0 272.65V64.52h374.634v208.13c0 11.495-9.318 20.813-20.813 20.813H20.813C9.318 293.463 0 284.145 0 272.65z"/><path fill="#e278b1" d="M25.574 120.82v-12.697c0-5.69 4.612-10.302 10.302-10.302h91.188c5.69 0 10.302 4.612 10.302 10.302v12.697c0 5.69-4.612 10.302-10.302 10.302H35.876c-5.689 0-10.302-4.612-10.302-10.302z"/><path fill="#93d8e4" d="M147.773 171.778H33.301a7.726 7.726 0 1 1 0-15.452h114.472a7.727 7.727 0 0 1 0 15.452zM178.992 205.078H33.301a7.726 7.726 0 1 1 0-15.452h145.691c4.268 0 7.726 3.459 7.726 7.726s-3.458 7.726-7.726 7.726zM178.992 238.082H33.301a7.726 7.726 0 1 1 0-15.452h145.691c4.268 0 7.726 3.459 7.726 7.726s-3.458 7.726-7.726 7.726z"/><path fill="#b9e4ef" d="M350.699 64.52v208.13c0 11.495-9.318 20.813-20.813 20.813h23.935c11.495 0 20.813-9.318 20.813-20.813V64.52z"/><path fill="#80b4fb" d="M0 64.52V20.813C0 9.318 9.318 0 20.813 0h333.008c11.495 0 20.813 9.318 20.813 20.813V64.52z"/><path fill="#61a2f9" d="M353.821 0h-23.935c11.495 0 20.813 9.318 20.813 20.813V64.52h23.935V20.813C374.634 9.318 365.316 0 353.821 0z"/><circle cx="333.008" cy="32.26" r="8.325" fill="#a2f4c1"/><circle cx="299.707" cy="32.26" r="8.325" fill="#ffe07d"/><circle cx="266.406" cy="32.26" r="8.325" fill="#e278b1"/><path fill="#ffe07d" d="m334.003 100.02-138.058 41.418c-5.605 1.681-5.952 9.486-.519 11.659l62.278 24.911a6.179 6.179 0 0 1 3.443 3.443l24.911 62.278c2.173 5.433 9.978 5.085 11.659-.519l41.418-138.058c.942-3.144-1.988-6.075-5.132-5.132z"/><path fill="#ffc250" d="m260.163 178.992-33.57-13.428-8.159 48.027c-.713 4.197 2.932 7.842 7.129 7.129l48.027-8.159z"/><path fill="#ffd064" d="M339.134 105.151c.943-3.143-1.988-6.074-5.131-5.131l-8.281 2.484-73.365 73.365 5.346 2.138a6.179 6.179 0 0 1 3.443 3.443l2.138 5.345 73.366-73.366z"/></svg>