<svg xmlns="http://www.w3.org/2000/svg" width="512" height="512" viewBox="0 0 64 64"><path fill="#0a5078" d="M6 54h52a2 2 0 0 0 2-2V16a2 2 0 0 0-2-2H6a2 2 0 0 0-2 2v36a2 2 0 0 0 2 2z"/><path fill="#00a0c8" d="M9 50h46a1 1 0 0 0 1-1V19a1 1 0 0 0-1-1H9a1 1 0 0 0-1 1v30a1 1 0 0 0 1 1z"/><path fill="#0a5078" d="M36 58h-8v-4h8zm-16 2h24a2 2 0 0 0-2-2H22a2 2 0 0 0-2 2z"/><path fill="#00325a" d="M36 55h-8v-1h8z"/><path fill="#f0f0f0" d="M50 46H14a2 2 0 0 1-2-2V14h40v30a2 2 0 0 1-2 2z"/><path fill="#d2d2d2" d="M41.553 32.894 37 42v4h10v-4l-4.553-9.106a.5.5 0 0 0-.894 0zM29 46v-1.072a7.994 7.994 0 0 0 1.737-12.495c-.634-.652-1.737-.226-1.737.683V38a2 2 0 0 1-2 2h-4a2 2 0 0 1-2-2v-4.883c0-.906-1.101-1.337-1.733-.688a7.98 7.98 0 0 0-2.167 6.853c.372 2.392 1.872 4.427 3.9 5.612V46z"/><path fill="#d2d2d2" d="M41 24h-.514c-.439 0-.806-.292-.955-.705a7.801 7.801 0 0 0-.293-.705c-.188-.397-.134-.865.176-1.175l.364-.364a.999.999 0 0 0 0-1.414l-1.414-1.414a.999.999 0 0 0-1.414 0l-.364.364c-.311.311-.778.364-1.175.176a8.232 8.232 0 0 0-.705-.293c-.414-.149-.706-.517-.706-.956V17a1 1 0 0 0-1-1h-2a1 1 0 0 0-1 1v.514c0 .439-.292.806-.705.955a7.801 7.801 0 0 0-.705.293c-.397.188-.865.134-1.175-.176l-.364-.364a.999.999 0 0 0-1.414 0l-1.414 1.414a.999.999 0 0 0 0 1.414l.364.364c.311.311.364.778.176 1.175a8.232 8.232 0 0 0-.293.705c-.149.414-.517.706-.956.706H23a1 1 0 0 0-1 1v2a1 1 0 0 0 1 1h.514c.439 0 .806.292.955.705.087.241.184.476.293.705.188.397.134.865-.176 1.175l-.364.364a.999.999 0 0 0 0 1.414l1.414 1.414a.999.999 0 0 0 1.414 0l.364-.364c.311-.311.778-.364 1.175-.176.229.108.465.206.705.293.414.149.706.517.706.956V35a1 1 0 0 0 1 1h2a1 1 0 0 0 1-1v-.514c0-.439.292-.806.705-.955.241-.087.476-.184.705-.293.397-.188.865-.134 1.175.176l.364.364a.999.999 0 0 0 1.414 0l1.414-1.414a.999.999 0 0 0 0-1.414l-.364-.364c-.311-.311-.364-.778-.176-1.175.108-.229.206-.465.293-.705.149-.414.517-.706.956-.706H41a1 1 0 0 0 1-1v-2a1 1 0 0 0-1-1zm-9 6a4 4 0 1 1 0-8 4 4 0 0 1 0 8z"/><path fill="#c80a50" d="M52 14H12v-4a2 2 0 0 1 2-2h36a2 2 0 0 1 2 2z"/><circle cx="48" cy="11" r="1" fill="#fab400"/><circle cx="44" cy="11" r="1" fill="#00a0c8"/><circle cx="40" cy="11" r="1" fill="#00143c"/><path fill="#c80a50" d="M32 38a7.956 7.956 0 0 0-2.263-5.567c-.634-.652-1.737-.226-1.737.683V38a2 2 0 0 1-2 2h-4a2 2 0 0 1-2-2v-4.883c0-.906-1.101-1.337-1.733-.688a7.98 7.98 0 0 0-2.167 6.853c.372 2.392 1.872 4.427 3.9 5.612V50h8v-5.072A7.994 7.994 0 0 0 32 38z"/><path fill="#fab400" d="M36 42h10v8H36z"/><path fill="#dc9600" d="M38 42h6v8h-6z"/><path fill="#0a5078" d="M40.553 32.894 40 34h2l-.553-1.106a.5.5 0 0 0-.894 0z"/><path fill="#f0c8a0" d="m46 42-4-8h-2l-4 8z"/><path fill="#0082aa" d="M28 46h1v4h-1zm18 0h1v4h-1z"/></svg>